<?xml version="1.0" encoding="utf-8"?>
<!-- Generator: Adobe Illustrator 15.0.0, SVG Export Plug-In . SVG Version: 6.00 Build 0)  -->
<!DOCTYPE svg PUBLIC "-//W3C//DTD SVG 1.1//EN" "http://www.w3.org/Graphics/SVG/1.1/DTD/svg11.dtd">
<svg version="1.1" id="Layer_1" xmlns="http://www.w3.org/2000/svg" xmlns:xlink="http://www.w3.org/1999/xlink" x="0px" y="0px"
	 width="600.04px" height="174.742px" viewBox="-305.5 396.5 600.04 174.742" enable-background="new -305.5 396.5 600.04 174.742"
	 xml:space="preserve">
<path d="M272.313,571.242h-555.59c-12.217,0-22.224-9.834-22.224-21.842V418.342c0-12.008,10.006-21.842,22.224-21.842h555.59
	c12.217,0,22.226,9.834,22.226,21.842v131.06C294.538,561.408,284.532,571.242,272.313,571.242z"/>
<g>
	<path fill="#FFFFFF" d="M-172.157,478.477c-0.128-14.212,11.637-21.125,12.175-21.447c-6.663-9.713-16.989-11.041-20.619-11.146
		c-8.673-0.914-17.087,5.188-21.505,5.188c-4.507,0-11.311-5.103-18.644-4.951c-9.437,0.146-18.264,5.609-23.105,14.094
		c-9.991,17.299-2.54,42.72,7.033,56.699c4.789,6.852,10.385,14.494,17.708,14.229c7.166-0.298,9.843-4.568,18.489-4.568
		c8.567,0,11.081,4.568,18.551,4.396c7.69-0.125,12.532-6.879,17.153-13.789c5.533-7.852,7.756-15.577,7.844-15.979
		C-157.257,501.143-172.01,495.512-172.157,478.477L-172.157,478.477z M-186.268,436.686c3.854-4.82,6.491-11.378,5.76-18.031
		c-5.578,0.246-12.555,3.856-16.571,8.572c-3.554,4.151-6.729,10.961-5.908,17.364C-196.723,445.059-190.29,441.43-186.268,436.686z
		"/>
</g>
<g>
	<path fill="#FFFFFF" d="M-68.459,530.156h-10.015l-5.485-17.236h-19.066l-5.226,17.236H-118l18.891-58.683h11.667L-68.459,530.156z
		 M-85.611,505.688l-4.961-15.322c-0.523-1.563-1.508-5.252-2.958-11.055h-0.177c-0.578,2.495-1.508,6.182-2.787,11.055
		l-4.872,15.322H-85.611L-85.611,505.688z M-19.879,508.48c0,7.194-1.944,12.883-5.834,17.059
		c-3.483,3.721-7.811,5.574-12.974,5.574c-5.572,0-9.576-2.002-12.016-6.006h-0.177v22.291h-9.4v-45.625
		c0-4.525-0.119-9.168-0.349-13.931h8.268l0.524,6.705h0.177c3.135-5.055,7.893-7.573,14.278-7.573
		c4.991,0,9.158,1.971,12.491,5.918C-21.546,496.844-19.879,502.037-19.879,508.48z M-29.458,508.824
		c0-4.119-0.927-7.514-2.787-10.188c-2.033-2.784-4.763-4.182-8.185-4.182c-2.319,0-4.428,0.777-6.311,2.309
		c-1.888,1.543-3.122,3.56-3.699,6.056c-0.291,1.164-0.437,2.114-0.437,2.864v7.056c0,3.078,0.943,5.676,2.83,7.797
		c1.888,2.121,4.34,3.18,7.354,3.18c3.541,0,6.297-1.365,8.269-4.092C-30.444,516.893-29.458,513.293-29.458,508.824z
		 M28.788,508.48c0,7.194-1.944,12.883-5.839,17.059c-3.479,3.721-7.805,5.574-12.969,5.574c-5.573,0-9.576-2.002-12.011-6.006
		h-0.177v22.291h-9.401v-45.625c0-4.525-0.118-9.168-0.348-13.931h8.268l0.524,6.705h0.177c3.131-5.055,7.889-7.573,14.277-7.573
		c4.986,0,9.153,1.971,12.497,5.918C27.116,496.844,28.788,502.037,28.788,508.48z M19.209,508.824
		c0-4.119-0.932-7.514-2.791-10.188c-2.033-2.784-4.754-4.182-8.181-4.182c-2.323,0-4.428,0.777-6.313,2.309
		c-1.888,1.543-3.117,3.56-3.695,6.056c-0.285,1.164-0.437,2.114-0.437,2.864v7.056c0,3.078,0.943,5.676,2.822,7.797
		c1.887,2.117,4.339,3.18,7.362,3.18c3.541,0,6.297-1.365,8.269-4.092C18.223,516.893,19.209,513.293,19.209,508.824L19.209,508.824
		z M83.2,513.701c0,4.99-1.732,9.053-5.212,12.188c-3.822,3.427-9.146,5.138-15.983,5.138c-6.314,0-11.377-1.217-15.208-3.654
		l2.178-7.836c4.127,2.496,8.656,3.748,13.59,3.748c3.541,0,6.297-0.803,8.277-2.396c1.971-1.598,2.954-3.739,2.954-6.411
		c0-2.382-0.813-4.39-2.438-6.017c-1.618-1.627-4.321-3.141-8.096-4.537c-10.274-3.83-15.407-9.442-15.407-16.825
		c0-4.822,1.799-8.779,5.402-11.855c3.589-3.082,8.378-4.621,14.365-4.621c5.34,0,9.775,0.93,13.316,2.785l-2.351,7.664
		c-3.308-1.799-7.047-2.697-11.23-2.697c-3.308,0-5.892,0.814-7.743,2.438c-1.564,1.45-2.351,3.219-2.351,5.313
		c0,2.32,0.896,4.238,2.694,5.746c1.564,1.396,4.408,2.902,8.535,4.529c5.05,2.032,8.759,4.407,11.145,7.135
		C82.015,506.244,83.2,509.645,83.2,513.701L83.2,513.701z M114.282,494.898h-10.362v20.543c0,5.227,1.826,7.836,5.484,7.836
		c1.682,0,3.074-0.146,4.177-0.437l0.261,7.14c-1.854,0.688-4.291,1.041-7.312,1.041c-3.713,0-6.613-1.136-8.709-3.396
		c-2.086-2.268-3.136-6.065-3.136-11.406v-21.328h-6.173v-7.057h6.173v-7.748l9.233-2.785v10.533h10.361L114.282,494.898
		L114.282,494.898z M161.036,508.652c0,6.504-1.859,11.844-5.572,16.02c-3.895,4.301-9.063,6.441-15.504,6.441
		c-6.208,0-11.151-2.06-14.838-6.178c-3.688-4.119-5.529-9.316-5.529-15.582c0-6.562,1.896-11.931,5.701-16.105
		c3.797-4.18,8.921-6.27,15.362-6.27c6.208,0,11.204,2.059,14.976,6.182C159.236,497.16,161.036,502.324,161.036,508.652
		L161.036,508.652z M151.282,508.955c0-3.9-0.833-7.25-2.521-10.041c-1.972-3.377-4.789-5.063-8.44-5.063
		c-3.777,0-6.648,1.688-8.62,5.063c-1.688,2.797-2.521,6.195-2.521,10.219c0,3.9,0.834,7.25,2.521,10.035
		c2.032,3.377,4.872,5.063,8.536,5.063c3.59,0,6.407-1.72,8.44-5.15C150.409,516.236,151.282,512.854,151.282,508.955z
		 M191.595,496.111c-0.93-0.172-1.922-0.26-2.963-0.26c-3.308,0-5.864,1.247-7.664,3.747c-1.564,2.203-2.351,4.99-2.351,8.354
		v22.201h-9.396l0.088-28.988c0-4.877-0.119-9.314-0.353-13.318h8.188l0.344,8.097h0.261c0.991-2.783,2.558-5.021,4.7-6.703
		c2.095-1.512,4.356-2.267,6.796-2.267c0.867,0,1.652,0.063,2.35,0.173V496.111L191.595,496.111z M233.64,506.996
		c0,1.688-0.11,3.105-0.344,4.268h-28.203c0.109,4.181,1.473,7.377,4.092,9.582c2.377,1.972,5.45,2.957,9.225,2.957
		c4.177,0,7.985-0.664,11.412-2.002l1.474,6.525c-4.004,1.746-8.731,2.615-14.187,2.615c-6.562,0-11.712-1.933-15.46-5.791
		c-3.739-3.857-5.612-9.039-5.612-15.539c0-6.381,1.741-11.693,5.229-15.933c3.651-4.522,8.586-6.785,14.794-6.785
		c6.099,0,10.715,2.263,13.851,6.785C232.392,497.275,233.64,501.721,233.64,506.996L233.64,506.996z M224.673,504.559
		c0.062-2.784-0.551-5.192-1.825-7.229c-1.627-2.613-4.127-3.92-7.492-3.92c-3.073,0-5.573,1.275-7.481,3.832
		c-1.565,2.033-2.496,4.473-2.782,7.313h19.582L224.673,504.559L224.673,504.559z"/>
</g>
<g>
	<path fill="#FFFFFF" d="M-88.721,435.375c0,5.189-1.558,9.098-4.665,11.721c-2.88,2.42-6.973,3.634-12.272,3.634
		c-2.628,0-4.876-0.115-6.76-0.345v-28.356c2.456-0.396,5.103-0.601,7.96-0.601c5.049,0,8.854,1.099,11.42,3.293
		C-90.164,427.203-88.721,430.754-88.721,435.375z M-93.593,435.502c0-3.363-0.892-5.942-2.672-7.742
		c-1.781-1.795-4.384-2.692-7.811-2.692c-1.455,0-2.693,0.096-3.721,0.299v21.561c0.567,0.089,1.608,0.127,3.121,0.127
		c3.537,0,6.267-0.981,8.188-2.948C-94.563,442.135-93.593,439.27-93.593,435.502L-93.593,435.502z M-62.885,439.908
		c0,3.197-0.913,5.815-2.738,7.871c-1.914,2.11-4.449,3.166-7.615,3.166c-3.052,0-5.48-1.01-7.293-3.039
		c-1.809-2.021-2.712-4.576-2.712-7.654c0-3.219,0.93-5.859,2.8-7.908c1.869-2.053,4.383-3.078,7.549-3.078
		c3.053,0,5.503,1.011,7.359,3.033C-63.772,434.264-62.885,436.803-62.885,439.908z M-67.677,440.059
		c0-1.918-0.415-3.563-1.239-4.936c-0.97-1.656-2.352-2.486-4.146-2.486c-1.855,0-3.268,0.83-4.237,2.486
		c-0.828,1.371-1.238,3.043-1.238,5.02c0,1.919,0.414,3.563,1.238,4.935c1.001,1.658,2.395,2.486,4.192,2.486
		c1.766,0,3.148-0.843,4.146-2.531C-68.105,443.635-67.677,441.977-67.677,440.059L-67.677,440.059z M-28.246,429.688l-6.504,20.784
		h-4.233l-2.692-9.024c-0.685-2.254-1.239-4.494-1.672-6.717h-0.083c-0.401,2.284-0.957,4.521-1.673,6.717l-2.86,9.024h-4.282
		l-6.115-20.784h4.749l2.351,9.881c0.568,2.338,1.035,4.563,1.41,6.672h0.084c0.345-1.736,0.913-3.951,1.716-6.627l2.949-9.922
		h3.767l2.827,9.711c0.683,2.367,1.237,4.646,1.666,6.842h0.128c0.313-2.139,0.785-4.418,1.411-6.842l2.521-9.711h4.537
		L-28.246,429.688L-28.246,429.688z M-4.289,450.473H-8.91v-11.903c0-3.67-1.394-5.504-4.188-5.504
		c-1.371,0-2.479,0.504-3.339,1.514c-0.851,1.01-1.282,2.199-1.282,3.563v12.329h-4.621v-14.844c0-1.824-0.058-3.805-0.167-5.947
		h4.061l0.217,3.25h0.127c0.538-1.01,1.342-1.844,2.396-2.51c1.253-0.774,2.654-1.168,4.188-1.168c1.94,0,3.555,0.627,4.838,1.885
		c1.597,1.539,2.395,3.836,2.395,6.888v12.448L-4.289,450.473L-4.289,450.473z M8.456,450.473H3.837v-30.323h4.617L8.456,450.473
		L8.456,450.473z M35.661,439.908c0,3.197-0.911,5.815-2.737,7.871c-1.913,2.11-4.453,3.166-7.615,3.166
		c-3.056,0-5.485-1.01-7.293-3.039c-1.808-2.021-2.712-4.576-2.712-7.654c0-3.219,0.931-5.859,2.8-7.908
		c1.87-2.053,4.384-3.078,7.545-3.078c3.057,0,5.503,1.011,7.364,3.033C34.774,434.264,35.661,436.803,35.661,439.908z
		 M30.865,440.059c0-1.918-0.415-3.563-1.238-4.936c-0.967-1.656-2.352-2.486-4.142-2.486c-1.859,0-3.271,0.83-4.236,2.486
		c-0.829,1.371-1.239,3.043-1.239,5.02c0,1.919,0.415,3.563,1.239,4.935c1.001,1.658,2.395,2.486,4.192,2.486
		c1.765,0,3.145-0.843,4.142-2.531C30.44,443.635,30.865,441.977,30.865,440.059z M58.025,450.473h-4.148l-0.345-2.395h-0.128
		c-1.42,1.908-3.442,2.865-6.071,2.865c-1.962,0-3.55-0.631-4.744-1.883c-1.085-1.138-1.627-2.554-1.627-4.232
		c0-2.539,1.058-4.477,3.188-5.814c2.126-1.34,5.115-1.998,8.965-1.969v-0.389c0-2.736-1.438-4.104-4.316-4.104
		c-2.05,0-3.857,0.517-5.419,1.539l-0.939-3.032c1.933-1.195,4.317-1.796,7.131-1.796c5.434,0,8.157,2.865,8.157,8.599v7.656
		C57.728,447.594,57.829,449.246,58.025,450.473L58.025,450.473z M53.229,443.33v-3.207c-5.097-0.088-7.646,1.312-7.646,4.189
		c0,1.084,0.291,1.895,0.886,2.438c0.596,0.541,1.354,0.812,2.258,0.812c1.015,0,1.963-0.322,2.827-0.962
		c0.868-0.645,1.401-1.459,1.601-2.459C53.202,443.916,53.229,443.643,53.229,443.33L53.229,443.33z M84.285,450.473h-4.102
		l-0.216-3.338h-0.128c-1.311,2.541-3.541,3.812-6.676,3.812c-2.506,0-4.591-0.982-6.244-2.951
		c-1.653-1.965-2.479-4.521-2.479-7.652c0-3.364,0.896-6.09,2.694-8.172c1.741-1.938,3.876-2.91,6.416-2.91
		c2.791,0,4.744,0.938,5.854,2.822h0.089v-11.934h4.626v24.725C84.123,446.896,84.174,448.762,84.285,450.473L84.285,450.473z
		 M79.497,441.707v-3.467c0-0.601-0.045-1.084-0.129-1.455c-0.26-1.109-0.819-2.047-1.671-2.801
		c-0.859-0.754-1.896-1.133-3.091-1.133c-1.725,0-3.073,0.684-4.064,2.055c-0.983,1.373-1.482,3.123-1.482,5.262
		c0,2.057,0.473,3.723,1.42,5.006c1.001,1.367,2.352,2.051,4.039,2.051c1.519,0,2.729-0.569,3.651-1.711
		C79.061,444.459,79.497,443.189,79.497,441.707L79.497,441.707z M123.808,439.908c0,3.197-0.912,5.815-2.738,7.871
		c-1.913,2.11-4.443,3.166-7.613,3.166c-3.049,0-5.478-1.01-7.295-3.039c-1.808-2.021-2.712-4.576-2.712-7.654
		c0-3.219,0.932-5.859,2.802-7.908c1.868-2.053,4.383-3.078,7.553-3.078c3.047,0,5.503,1.011,7.354,3.033
		C122.92,434.264,123.808,436.803,123.808,439.908z M119.02,440.059c0-1.918-0.415-3.563-1.239-4.936
		c-0.975-1.656-2.351-2.486-4.148-2.486c-1.853,0-3.264,0.83-4.237,2.486c-0.829,1.371-1.239,3.043-1.239,5.02
		c0,1.919,0.415,3.563,1.239,4.935c1.001,1.658,2.396,2.486,4.193,2.486c1.764,0,3.151-0.843,4.148-2.531
		C118.585,443.635,119.02,441.977,119.02,440.059z M148.653,450.473h-4.615v-11.903c0-3.67-1.395-5.504-4.193-5.504
		c-1.372,0-2.479,0.504-3.334,1.514s-1.283,2.199-1.283,3.563v12.329h-4.625v-14.844c0-1.824-0.054-3.805-0.163-5.947h4.058
		l0.216,3.25h0.128c0.542-1.01,1.345-1.844,2.395-2.51c1.256-0.774,2.654-1.168,4.193-1.168c1.936,0,3.549,0.627,4.832,1.885
		c1.602,1.539,2.395,3.836,2.395,6.888v12.448L148.653,450.473L148.653,450.473z M179.754,433.148h-5.089v10.098
		c0,2.566,0.903,3.852,2.693,3.852c0.829,0,1.518-0.071,2.061-0.217l0.119,3.506c-0.913,0.345-2.112,0.517-3.591,0.517
		c-1.824,0-3.244-0.556-4.271-1.666c-1.032-1.111-1.544-2.98-1.544-5.604v-10.481h-3.038v-3.461h3.038v-3.812l4.529-1.365v5.173
		h5.088v3.465h0.005V433.148z M204.22,450.473h-4.626v-11.817c0-3.726-1.395-5.59-4.186-5.59c-2.143,0-3.605,1.08-4.408,3.239
		c-0.138,0.455-0.217,1.011-0.217,1.664v12.5h-4.616v-30.319h4.616v12.526h0.089c1.454-2.278,3.541-3.416,6.242-3.416
		c1.914,0,3.497,0.625,4.754,1.884c1.565,1.563,2.352,3.893,2.352,6.971V450.473L204.22,450.473z M229.455,439.096
		c0,0.83-0.063,1.525-0.173,2.097h-13.858c0.062,2.055,0.724,3.619,2.007,4.705c1.173,0.969,2.685,1.455,4.537,1.455
		c2.05,0,3.92-0.328,5.604-0.984l0.724,3.211c-1.972,0.854-4.29,1.283-6.977,1.283c-3.219,0-5.754-0.949-7.589-2.845
		c-1.843-1.896-2.756-4.44-2.756-7.633c0-3.137,0.852-5.746,2.566-7.828c1.79-2.223,4.211-3.332,7.267-3.332
		c2.99,0,5.261,1.109,6.795,3.332C228.84,434.32,229.455,436.504,229.455,439.096L229.455,439.096z M225.044,437.902
		c0.035-1.371-0.271-2.554-0.896-3.551c-0.803-1.283-2.023-1.927-3.678-1.927c-1.508,0-2.738,0.625-3.678,1.884
		c-0.768,1-1.222,2.194-1.371,3.594H225.044z"/>
</g>
</svg>
